<svg style="" width="37.031250" height="37.343750" version="1.1" xmlns="http://www.w3.org/2000/svg">
<path d="M0.781250 21.269951 L15.468750 37.988701 C16.718756 39.134540 17.942702 39.134540 19.140625 37.988701 C20.338548 36.842862 20.312506 35.644958 19.062500 34.394951 L5.781250 19.394951 L19.062500 4.551201 C20.312506 3.301195 20.338548 2.077249 19.140625 0.879326 C17.942702 -0.318596 16.718756 -0.292555 15.468750 0.957451 L0.781250 17.676201 C0.260414 18.197037 0.000000 18.795990 0.000000 19.473076 C0.000000 20.150163 0.260414 20.749115 0.781250 21.269951 Z M37.031250 0.879326 C35.885411 -0.318596 34.687506 -0.292555 33.437500 0.957451 L18.593750 17.676201 C18.177081 18.197037 17.968750 18.795990 17.968750 19.473076 C17.968750 20.150163 18.177081 20.749115 18.593750 21.269951 L33.437500 37.988701 C34.687506 39.134540 35.885411 39.134540 37.031250 37.988701 C38.177089 36.842862 38.177089 35.644958 37.031250 34.394951 L23.750000 19.394951 L37.031250 4.551201 C38.177089 3.301195 38.177089 2.077249 37.031250 0.879326 Z M60.000000 54.551201" style="fill:black"/>
</svg>