<svg style="" width="37.031250" height="37.968750" version="1.1" xmlns="http://www.w3.org/2000/svg">
<path d="M37.109379 17.578129 L22.421879 0.859379 C21.171873 -0.286460 19.947927 -0.286460 18.750004 0.859379 C17.552082 2.005218 17.578123 3.203123 18.828129 4.453129 L32.109379 19.453129 L18.828129 34.296879 C18.307293 34.817715 18.046879 35.416668 18.046879 36.093754 C18.046879 36.770841 18.307293 37.369793 18.828129 37.890629 C19.973968 39.140636 21.171873 39.140636 22.421879 37.890629 L37.109379 21.171879 C37.630215 20.651043 37.890629 20.052091 37.890629 19.375004 C37.890629 18.697918 37.630215 18.098965 37.109379 17.578129 Z M0.859379 37.968754 C2.005218 39.166677 3.203123 39.140636 4.453129 37.890629 L19.296879 21.171879 C19.713548 20.651043 19.921879 20.078132 19.921879 19.453129 C19.921879 18.723959 19.713548 18.098965 19.296879 17.578129 L4.453129 0.859379 C3.932293 0.338543 3.333341 0.078129 2.656254 0.078129 C1.979168 0.078129 1.380215 0.338543 0.859379 0.859379 C-0.286460 2.005218 -0.286460 3.203123 0.859379 4.453129 L14.140629 19.453129 L0.859379 34.296879 C-0.286460 35.546886 -0.286460 36.770832 0.859379 37.968754 Z M57.890629 54.296879" style="fill:black"/>
</svg>