<svg style="" width="24.687500" height="38.750000" version="1.1" xmlns="http://www.w3.org/2000/svg">
<path d="M4.687500 39.609379 L23.906250 21.953129 C24.427086 21.536461 24.687500 20.963550 24.687500 20.234379 C24.687500 19.505209 24.427086 18.932298 23.906250 18.515629 C23.906250 18.515629 23.880209 18.489588 23.828125 18.437504 C23.776041 18.385421 23.750000 18.359379 23.750000 18.359379 L4.687500 0.859379 C3.437494 -0.286460 2.135423 -0.286460 0.781250 0.859379 L0.781250 1.015629 C0.260414 1.432298 0.000000 2.005209 0.000000 2.734379 L0.000000 37.734379 C0.000000 38.463550 0.312497 39.088543 0.937500 39.609379 L0.781250 39.609379 C2.135423 40.755218 3.437494 40.755218 4.687500 39.609379 Z M50.000000 55.234379" style="fill:black"/>
</svg>