<svg style="" width="75.000000" height="75.000000" version="1.1" xmlns="http://www.w3.org/2000/svg">
<path d="M37.500000 -0.000000 C27.187448 -0.000000 18.359412 3.671838 11.015625 11.015625 C3.671838 18.359412 0.000000 27.187448 0.000000 37.500000 C0.000000 47.812552 3.671838 56.640588 11.015625 63.984375 C18.359412 71.328162 27.187448 75.000000 37.500000 75.000000 C47.812552 75.000000 56.640588 71.328162 63.984375 63.984375 C71.328162 56.640588 75.000000 47.812552 75.000000 37.500000 C75.000000 27.187448 71.328162 18.359412 63.984375 11.015625 C56.640588 3.671838 47.812552 -0.000000 37.500000 -0.000000 Z M45.000000 52.656250 C45.000000 53.281253 44.739586 53.802081 44.218750 54.218750 L44.062500 54.375000 C42.812494 55.312505 41.510423 55.312505 40.156250 54.375000 L20.937500 39.062500 C20.833333 39.062500 20.781250 39.062500 20.781250 39.062500 C20.260414 38.541664 20.000000 37.994795 20.000000 37.421875 C20.000000 36.848955 20.260414 36.354169 20.781250 35.937500 L40.156250 20.625000 C41.510423 19.583328 42.812494 19.583328 44.062500 20.625000 C44.687503 21.041669 45.000000 21.562497 45.000000 22.187500 Z M75.000000 70.000000" style="fill:black"/>
</svg>