<svg style="" width="75.000000" height="75.000000" version="1.1" xmlns="http://www.w3.org/2000/svg">
<path d="M37.500000 -0.000000 C27.187448 -0.000000 18.359412 3.671838 11.015625 11.015625 C3.671838 18.359412 0.000000 27.187448 0.000000 37.500000 C0.000000 47.812552 3.671838 56.640588 11.015625 63.984375 C18.359412 71.328162 27.187448 75.000000 37.500000 75.000000 C47.812552 75.000000 56.640588 71.328162 63.984375 63.984375 C71.328162 56.640588 75.000000 47.812552 75.000000 37.500000 C75.000000 27.187448 71.328162 18.359412 63.984375 11.015625 C56.640588 3.671838 47.812552 -0.000000 37.500000 -0.000000 Z M54.218750 39.062500 L34.843750 54.375000 C33.489577 55.312505 32.187506 55.312505 30.937500 54.375000 C30.312497 53.854164 30.000000 53.281253 30.000000 52.656250 L30.000000 22.187500 C30.000000 21.562497 30.260414 21.041669 30.781250 20.625000 L30.937500 20.625000 C32.187506 19.583328 33.489577 19.583328 34.843750 20.625000 L54.062500 35.937500 C54.166667 35.937500 54.218750 35.937500 54.218750 35.937500 C54.739586 36.354169 55.000000 36.874997 55.000000 37.500000 C55.000000 38.125003 54.739586 38.645831 54.218750 39.062500 Z M75.000000 70.000000" style="fill:black"/>
</svg>