<svg style="" width="46.562500" height="66.562500" version="1.1" xmlns="http://www.w3.org/2000/svg">
<path d="M23.281250 31.562500 C25.572928 31.562500 27.526034 30.755216 29.140625 29.140625 C30.755216 27.526034 31.562500 25.572928 31.562500 23.281250 C31.562500 20.989572 30.755216 19.036466 29.140625 17.421875 C27.526034 15.807284 25.572928 15.000000 23.281250 15.000000 C20.989572 15.000000 19.036466 15.807284 17.421875 17.421875 C15.807284 19.036466 15.000000 20.989572 15.000000 23.281250 C15.000000 25.572928 15.807284 27.526034 17.421875 29.140625 C19.036466 30.755216 20.989572 31.562500 23.281250 31.562500 Z M23.281250 -0.000000 C29.739616 -0.000000 35.234352 2.265602 39.765625 6.796875 C44.296898 11.328148 46.562500 16.822884 46.562500 23.281250 C46.562500 26.510433 45.755216 30.208313 44.140625 34.375000 C42.526034 38.541687 40.572928 42.447898 38.281250 46.093750 C35.989572 49.739602 33.723970 53.151026 31.484375 56.328125 C29.244780 59.505224 27.343758 62.031241 25.781250 63.906250 L23.281250 66.562500 C22.656247 65.833330 21.822922 64.869798 20.781250 63.671875 C19.739578 62.473952 17.864597 60.078143 15.156250 56.484375 C12.447903 52.890607 10.078135 49.401059 8.046875 46.015625 C6.015615 42.630191 4.166675 38.802105 2.500000 34.531250 C0.833325 30.260395 0.000000 26.510433 0.000000 23.281250 C0.000000 16.822884 2.265602 11.328148 6.796875 6.796875 C11.328148 2.265602 16.822884 -0.000000 23.281250 -0.000000 Z M63.281250 66.640625" style="fill:black"/>
</svg>