<svg style="" width="80.000000" height="80.000000" version="1.1" xmlns="http://www.w3.org/2000/svg">
<path d="M12.857143 17.142857 C14.821438 17.142857 16.502969 17.842255 17.901786 19.241071 C19.300602 20.639888 20.000000 22.321419 20.000000 24.285714 L20.000000 72.857143 C20.000000 74.821438 19.300602 76.502969 17.901786 77.901786 C16.502969 79.300602 14.821438 80.000000 12.857143 80.000000 L7.142857 80.000000 C5.178562 80.000000 3.497031 79.300602 2.098214 77.901786 C0.699398 76.502969 0.000000 74.821438 0.000000 72.857143 L0.000000 24.285714 C0.000000 22.321419 0.699398 20.639888 2.098214 19.241071 C3.497031 17.842255 5.178562 17.142857 7.142857 17.142857 Z M74.285714 24.419643 C76.011913 25.431553 77.395828 26.815467 78.437500 28.571429 C79.479172 30.327390 80.000000 32.232133 80.000000 34.285714 L80.000000 68.571429 C80.000000 71.726206 78.883940 74.419632 76.651786 76.651786 C74.419632 78.883940 71.726206 80.000000 68.571429 80.000000 L30.000000 80.000000 C28.035704 80.000000 26.354174 79.300602 24.955357 77.901786 C23.556541 76.502969 22.857143 74.821438 22.857143 72.857143 L22.857143 4.285714 C22.857143 3.095232 23.273805 2.083337 24.107143 1.250000 C24.940480 0.416663 25.952375 -0.000000 27.142857 -0.000000 L57.142857 -0.000000 C58.333339 -0.000000 59.642850 0.297616 61.071429 0.892857 C62.500007 1.488098 63.630948 2.202377 64.464286 3.035714 L71.250000 9.821429 C72.083337 10.654766 72.797616 11.785707 73.392857 13.214286 C73.988098 14.642864 74.285714 15.952375 74.285714 17.142857 Z M41.428571 68.571429 L41.428571 62.857143 C41.428571 62.440474 41.294644 62.098216 41.026786 61.830357 C40.758927 61.562499 40.416669 61.428571 40.000000 61.428571 L34.285714 61.428571 C33.869046 61.428571 33.526787 61.562499 33.258929 61.830357 C32.991070 62.098216 32.857143 62.440474 32.857143 62.857143 L32.857143 68.571429 C32.857143 68.988097 32.991070 69.330356 33.258929 69.598214 C33.526787 69.866073 33.869046 70.000000 34.285714 70.000000 L40.000000 70.000000 C40.416669 70.000000 40.758927 69.866073 41.026786 69.598214 C41.294644 69.330356 41.428571 68.988097 41.428571 68.571429 Z M41.428571 57.142857 L41.428571 51.428571 C41.428571 51.011903 41.294644 50.669644 41.026786 50.401786 C40.758927 50.133927 40.416669 50.000000 40.000000 50.000000 L34.285714 50.000000 C33.869046 50.000000 33.526787 50.133927 33.258929 50.401786 C32.991070 50.669644 32.857143 51.011903 32.857143 51.428571 L32.857143 57.142857 C32.857143 57.559526 32.991070 57.901784 33.258929 58.169643 C33.526787 58.437501 33.869046 58.571429 34.285714 58.571429 L40.000000 58.571429 C40.416669 58.571429 40.758927 58.437501 41.026786 58.169643 C41.294644 57.901784 41.428571 57.559526 41.428571 57.142857 Z M41.428571 45.714286 L41.428571 40.000000 C41.428571 39.583331 41.294644 39.241073 41.026786 38.973214 C40.758927 38.705356 40.416669 38.571429 40.000000 38.571429 L34.285714 38.571429 C33.869046 38.571429 33.526787 38.705356 33.258929 38.973214 C32.991070 39.241073 32.857143 39.583331 32.857143 40.000000 L32.857143 45.714286 C32.857143 46.130954 32.991070 46.473213 33.258929 46.741071 C33.526787 47.008930 33.869046 47.142857 34.285714 47.142857 L40.000000 47.142857 C40.416669 47.142857 40.758927 47.008930 41.026786 46.741071 C41.294644 46.473213 41.428571 46.130954 41.428571 45.714286 Z M52.857143 68.571429 L52.857143 62.857143 C52.857143 62.440474 52.723216 62.098216 52.455357 61.830357 C52.187499 61.562499 51.845240 61.428571 51.428571 61.428571 L45.714286 61.428571 C45.297617 61.428571 44.955358 61.562499 44.687500 61.830357 C44.419642 62.098216 44.285714 62.440474 44.285714 62.857143 L44.285714 68.571429 C44.285714 68.988097 44.419642 69.330356 44.687500 69.598214 C44.955358 69.866073 45.297617 70.000000 45.714286 70.000000 L51.428571 70.000000 C51.845240 70.000000 52.187499 69.866073 52.455357 69.598214 C52.723216 69.330356 52.857143 68.988097 52.857143 68.571429 Z M52.857143 57.142857 L52.857143 51.428571 C52.857143 51.011903 52.723216 50.669644 52.455357 50.401786 C52.187499 50.133927 51.845240 50.000000 51.428571 50.000000 L45.714286 50.000000 C45.297617 50.000000 44.955358 50.133927 44.687500 50.401786 C44.419642 50.669644 44.285714 51.011903 44.285714 51.428571 L44.285714 57.142857 C44.285714 57.559526 44.419642 57.901784 44.687500 58.169643 C44.955358 58.437501 45.297617 58.571429 45.714286 58.571429 L51.428571 58.571429 C51.845240 58.571429 52.187499 58.437501 52.455357 58.169643 C52.723216 57.901784 52.857143 57.559526 52.857143 57.142857 Z M52.857143 45.714286 L52.857143 40.000000 C52.857143 39.583331 52.723216 39.241073 52.455357 38.973214 C52.187499 38.705356 51.845240 38.571429 51.428571 38.571429 L45.714286 38.571429 C45.297617 38.571429 44.955358 38.705356 44.687500 38.973214 C44.419642 39.241073 44.285714 39.583331 44.285714 40.000000 L44.285714 45.714286 C44.285714 46.130954 44.419642 46.473213 44.687500 46.741071 C44.955358 47.008930 45.297617 47.142857 45.714286 47.142857 L51.428571 47.142857 C51.845240 47.142857 52.187499 47.008930 52.455357 46.741071 C52.723216 46.473213 52.857143 46.130954 52.857143 45.714286 Z M64.285714 68.571429 L64.285714 62.857143 C64.285714 62.440474 64.151787 62.098216 63.883929 61.830357 C63.616070 61.562499 63.273812 61.428571 62.857143 61.428571 L57.142857 61.428571 C56.726188 61.428571 56.383930 61.562499 56.116071 61.830357 C55.848213 62.098216 55.714286 62.440474 55.714286 62.857143 L55.714286 68.571429 C55.714286 68.988097 55.848213 69.330356 56.116071 69.598214 C56.383930 69.866073 56.726188 70.000000 57.142857 70.000000 L62.857143 70.000000 C63.273812 70.000000 63.616070 69.866073 63.883929 69.598214 C64.151787 69.330356 64.285714 68.988097 64.285714 68.571429 Z M64.285714 57.142857 L64.285714 51.428571 C64.285714 51.011903 64.151787 50.669644 63.883929 50.401786 C63.616070 50.133927 63.273812 50.000000 62.857143 50.000000 L57.142857 50.000000 C56.726188 50.000000 56.383930 50.133927 56.116071 50.401786 C55.848213 50.669644 55.714286 51.011903 55.714286 51.428571 L55.714286 57.142857 C55.714286 57.559526 55.848213 57.901784 56.116071 58.169643 C56.383930 58.437501 56.726188 58.571429 57.142857 58.571429 L62.857143 58.571429 C63.273812 58.571429 63.616070 58.437501 63.883929 58.169643 C64.151787 57.901784 64.285714 57.559526 64.285714 57.142857 Z M64.285714 45.714286 L64.285714 40.000000 C64.285714 39.583331 64.151787 39.241073 63.883929 38.973214 C63.616070 38.705356 63.273812 38.571429 62.857143 38.571429 L57.142857 38.571429 C56.726188 38.571429 56.383930 38.705356 56.116071 38.973214 C55.848213 39.241073 55.714286 39.583331 55.714286 40.000000 L55.714286 45.714286 C55.714286 46.130954 55.848213 46.473213 56.116071 46.741071 C56.383930 47.008930 56.726188 47.142857 57.142857 47.142857 L62.857143 47.142857 C63.273812 47.142857 63.616070 47.008930 63.883929 46.741071 C64.151787 46.473213 64.285714 46.130954 64.285714 45.714286 Z M68.571429 28.571429 L68.571429 17.142857 L61.428571 17.142857 C60.238089 17.142857 59.226195 16.726195 58.392857 15.892857 C57.559520 15.059520 57.142857 14.047625 57.142857 12.857143 L57.142857 5.714286 L28.571429 5.714286 L28.571429 28.571429 Z M80.000000 68.571429" style="fill:black"/>
</svg>