<svg style="" width="51.875000" height="55.000000" version="1.1" xmlns="http://www.w3.org/2000/svg">
<path d="M52.410720 40.000000 C55.535735 43.125016 55.535735 46.562481 52.410720 50.312500 C51.160714 51.770841 49.936767 52.864580 48.738845 53.593750 C47.540922 54.322920 46.551349 54.739583 45.770095 54.843750 C44.988841 54.947917 43.869060 55.000000 42.410720 55.000000 C38.348199 55.000000 33.504498 52.916688 27.879470 48.750000 C23.400281 45.520817 19.337821 42.031269 15.691970 38.281250 C11.004446 33.385392 6.889904 27.812531 3.348220 21.562500 C0.223204 15.729138 -0.714286 10.937519 0.535720 7.187500 C1.160723 5.208323 2.619042 3.489591 4.910720 2.031250 L5.066970 1.875000 C6.941979 0.624994 8.608629 -0.000000 10.066970 -0.000000 C12.046146 -0.000000 13.816962 0.937491 15.379470 2.812500 L15.535720 2.968750 C17.931565 6.093766 19.598215 8.541658 20.535720 10.312500 C22.098228 13.541683 22.046145 16.302072 20.379470 18.593750 C19.129464 20.260425 18.504470 21.458330 18.504470 22.187500 C18.504470 22.500002 19.181546 23.437492 20.535720 25.000000 L20.691970 25.156250 C23.191982 27.968764 24.546135 29.479166 24.754470 29.687500 C24.858637 29.687500 24.962803 29.739583 25.066970 29.843750 C25.171137 29.947917 25.275303 30.052083 25.379470 30.156250 L25.691970 30.468750 C27.775314 32.552094 29.285715 34.010413 30.223220 34.843750 L30.379470 35.000000 C31.316974 35.833337 31.941968 36.250000 32.254470 36.250000 C32.775306 36.250000 34.285707 35.468758 36.785720 33.906250 C37.514890 33.385414 38.400298 33.125000 39.441970 33.125000 C41.316979 33.125000 43.582581 33.906242 46.238845 35.468750 C48.895108 37.031258 50.952379 38.541659 52.410720 40.000000 Z M54.910720 57.500000" style="fill:black"/>
</svg>